<svg width="32" height="31" viewBox="0 0 32 31" fill="none" xmlns="http://www.w3.org/2000/svg">
<path fill-rule="evenodd" clip-rule="evenodd" d="M16.2887 0.328613C7.75021 0.328613 0.847656 7.28206 0.847656 15.8844C0.847656 22.7607 5.27036 28.5814 11.4058 30.6415C12.1729 30.7964 12.4539 30.3068 12.4539 29.895C12.4539 29.5343 12.4286 28.2982 12.4286 27.0102C8.13328 27.9376 7.23882 25.1559 7.23882 25.1559C6.54853 23.353 5.52574 22.8897 5.52574 22.8897C4.11988 21.9368 5.62815 21.9368 5.62815 21.9368C7.18761 22.0398 8.00591 23.5335 8.00591 23.5335C9.38617 25.9027 11.6103 25.2333 12.5051 24.8212C12.6328 23.8167 13.0421 23.1214 13.4767 22.7351C10.0509 22.3745 6.44644 21.0353 6.44644 15.0601C6.44644 13.3603 7.05961 11.9696 8.03119 10.888C7.8779 10.5018 7.34091 8.90474 8.1848 6.76718C8.1848 6.76718 9.48857 6.35504 12.4283 8.36395C13.6869 8.02344 14.9849 7.85022 16.2887 7.84876C17.5925 7.84876 18.9215 8.02923 20.1488 8.36395C23.0889 6.35504 24.3926 6.76718 24.3926 6.76718C25.2365 8.90474 24.6992 10.5018 24.5459 10.888C25.5431 11.9696 26.131 13.3603 26.131 15.0601C26.131 21.0353 22.5266 22.3486 19.0752 22.7351C19.6378 23.2244 20.1232 24.1514 20.1232 25.6195C20.1232 27.7056 20.0979 29.3798 20.0979 29.8946C20.0979 30.3068 20.3792 30.7964 21.146 30.6418C27.2815 28.5811 31.7042 22.7607 31.7042 15.8844C31.7295 7.28206 24.8016 0.328613 16.2887 0.328613Z" fill="#374151"/>
</svg>
