<svg width="32" height="31" viewBox="0 0 32 31" fill="none" xmlns="http://www.w3.org/2000/svg">
<path d="M24.8111 0.0717773H6.81139C3.2616 0.0717773 0.382935 2.95044 0.382935 6.50024V24.4999C0.382935 28.0497 3.2616 30.9284 6.81139 30.9284H24.8111C28.3622 30.9284 31.2395 28.0497 31.2395 24.4999V6.50024C31.2395 2.95044 28.3622 0.0717773 24.8111 0.0717773ZM10.6685 24.4999H6.81139V10.3573H10.6685V24.4999ZM8.73993 8.72705C7.49795 8.72705 6.48997 7.71136 6.48997 6.45909C6.48997 5.20683 7.49795 4.19113 8.73993 4.19113C9.98191 4.19113 10.9899 5.20683 10.9899 6.45909C10.9899 7.71136 9.98319 8.72705 8.73993 8.72705ZM26.0968 24.4999H22.2397V17.2949C22.2397 12.9647 17.0969 13.2925 17.0969 17.2949V24.4999H13.2399V10.3573H17.0969V12.6266C18.8918 9.30176 26.0968 9.05619 26.0968 15.8099V24.4999Z" fill="#374151"/>
</svg>
